<svg width="32" height="36" viewBox="0 0 32 36" fill="none" xmlns="http://www.w3.org/2000/svg">
<path d="M27.3137 10.0328C24.2917 7.15985 20.2737 5.57761 16 5.57761V5.57761C15.1527 5.57761 14.739 4.54381 15.3523 3.95927L16.32 3.03709C16.9179 2.46725 16.9167 1.51283 16.3174 0.944454V0.944454C15.7594 0.415301 14.8846 0.416375 14.3279 0.946897L11.76 3.39426C9.7027 5.35488 9.69113 8.63376 11.7345 10.6089L14.2386 13.0293C14.7917 13.5639 15.6668 13.5712 16.2287 13.0458V13.0458C16.8322 12.4814 16.8401 11.5267 16.246 10.9525L15.3255 10.0627C14.6981 9.4563 15.1274 8.39447 16 8.39447V8.39447C23.1886 8.39447 29.0371 13.9545 29.0371 20.7888C29.0371 27.6231 23.1886 33.1831 16 33.1831C8.81136 33.1831 2.96293 27.623 2.96293 20.7885V20.7885C2.96293 20.0107 2.33234 19.3802 1.5545 19.3802L1.40843 19.3802C0.630553 19.3803 0 20.0109 0 20.7888V20.7888C0 24.8519 1.66429 28.6717 4.68632 31.5447C7.70827 34.4178 11.7263 36 16 36C20.2737 36 24.2917 34.4178 27.3137 31.5447C30.3357 28.6717 32 24.8518 32 20.7888C32 16.7258 30.3357 12.9059 27.3137 10.0328Z" fill="white"/>
</svg>
